<svg aria-hidden="true" style="position: absolute; width: 0; height: 0; overflow: hidden;" version="1.1" xmlns="http://www.w3.org/2000/svg" xmlns:xlink="http://www.w3.org/1999/xlink">
<defs>
<symbol id="icon-Pink" viewBox="0 0 32 32">
<path fill="#f472b7" style="fill: var(--color1, #f472b7)" d="M29.43 30.379c-5.871 5.354-14.849 5.068-20.052-0.638s-4.663-14.672 1.208-20.026c5.871-5.354 14.848-5.068 20.052 0.638s4.663 14.672-1.208 20.026z"></path>
<path fill="#fff" style="fill: var(--color2, #fff)" d="M14.029 17.477c0.352 0.386 0.492-0.068 0.889-0.43s0.9-0.494 0.548-0.881-0.959-0.405-1.356-0.043c-0.397 0.361-0.434 0.967-0.082 1.354z"></path>
<path fill="#fff" style="fill: var(--color2, #fff)" d="M11.283 19.981c0.352 0.386 0.492-0.068 0.889-0.43s0.9-0.494 0.548-0.881c-0.352-0.386-0.959-0.405-1.356-0.043s-0.434 0.967-0.082 1.354z"></path>
<path fill="#fff" style="fill: var(--color2, #fff)" d="M13.601 21.152c0.687 0.753 1.873 0.791 2.648 0.084s0.847-1.891 0.16-2.645c-0.687-0.754-0.581 0.626-1.356 1.333s-2.139 0.474-1.452 1.228z"></path>
</symbol>
<symbol id="icon-red_cartoon-3" viewBox="0 0 32 32">
<path fill="#f472b7" style="fill: var(--color1, #f472b7)" d="M23.504 24.262c-4.689 4.276-11.859 4.048-16.015-0.509s-3.724-11.718 0.965-15.994 11.859-4.048 16.015 0.509c4.156 4.557 3.724 11.718-0.965 15.994z"></path>
<path fill="#fff" style="fill: var(--color2, #fff)" d="M11.205 13.958c0.281 0.308 0.393-0.054 0.71-0.343s0.719-0.395 0.438-0.703-0.766-0.324-1.083-0.034c-0.317 0.289-0.347 0.773-0.065 1.081z"></path>
<path fill="#fff" style="fill: var(--color2, #fff)" d="M9.011 15.958c0.281 0.308 0.393-0.054 0.71-0.343s0.719-0.395 0.438-0.703c-0.281-0.309-0.766-0.323-1.083-0.034s-0.347 0.773-0.065 1.081z"></path>
<path fill="#fff" style="fill: var(--color2, #fff)" d="M10.863 16.893c0.549 0.602 1.496 0.632 2.115 0.067s0.676-1.51 0.127-2.112c-0.549-0.602-0.464 0.5-1.083 1.064s-1.708 0.379-1.159 0.981z"></path>
</symbol>
<symbol id="icon-linkedin" viewBox="0 0 20 20">
<path d="M5 3c0 1.062-0.71 1.976-2.001 1.976-1.215 0-1.999-0.862-1.999-1.924 0-1.090 0.76-2.052 2-2.052s1.976 0.91 2 2zM1 19v-13h4v13h-4z"></path>
<path d="M7 10.444c0-1.545-0.051-2.836-0.102-3.951h3.594l0.178 1.723h0.076c0.506-0.811 1.746-2 3.822-2 2.532 0 4.432 1.695 4.432 5.342v7.442h-4v-6.861c0-1.594-0.607-2.81-2-2.81-1.062 0-1.594 0.86-1.873 1.569-0.102 0.254-0.127 0.608-0.127 0.963v7.139h-4v-8.556z"></path>
</symbol>
<symbol id="icon-facebook" viewBox="0 0 20 20">
<path d="M17 1h-14c-1.1 0-2 0.9-2 2v14c0 1.101 0.9 2 2 2h7v-7h-2v-2.475h2v-2.050c0-2.164 1.212-3.684 3.766-3.684l1.803 0.002v2.605h-1.197c-0.994 0-1.372 0.746-1.372 1.438v1.69h2.568l-0.568 2.474h-2v7h4c1.1 0 2-0.899 2-2v-14c0-1.1-0.9-2-2-2z"></path>
</symbol>
<symbol id="icon-twitter" viewBox="0 0 20 20">
<path d="M17.316 6.246c0.008 0.162 0.011 0.326 0.011 0.488 0 4.99-3.797 10.742-10.74 10.742-2.133 0-4.116-0.625-5.787-1.697 0.296 0.035 0.596 0.053 0.9 0.053 1.77 0 3.397-0.604 4.688-1.615-1.651-0.031-3.046-1.121-3.526-2.621 0.23 0.043 0.467 0.066 0.71 0.066 0.345 0 0.679-0.045 0.995-0.131-1.727-0.348-3.028-1.873-3.028-3.703 0-0.016 0-0.031 0-0.047 0.509 0.283 1.092 0.453 1.71 0.473-1.013-0.678-1.68-1.832-1.68-3.143 0-0.691 0.186-1.34 0.512-1.898 1.861 2.285 4.644 3.787 7.781 3.945-0.064-0.277-0.097-0.564-0.097-0.861 0-2.084 1.689-3.773 3.774-3.773 1.086 0 2.067 0.457 2.756 1.191 0.859-0.17 1.667-0.484 2.397-0.916-0.282 0.881-0.881 1.621-1.66 2.088 0.764-0.092 1.49-0.293 2.168-0.594-0.506 0.758-1.146 1.422-1.884 1.953z"></path>
</symbol>
<symbol id="icon-pinterest" viewBox="0 0 20 20">
<path d="M8.617 13.227c-0.526 2.754-1.167 5.394-3.068 6.773-0.586-4.162 0.861-7.287 1.534-10.605-1.147-1.93 0.138-5.812 2.555-4.855 2.975 1.176-2.576 7.172 1.15 7.922 3.891 0.781 5.479-6.75 3.066-9.199-3.485-3.538-10.146-0.083-9.326 4.982 0.199 1.238 1.478 1.613 0.511 3.322-2.231-0.494-2.897-2.254-2.811-4.6 0.138-3.84 3.449-6.527 6.771-6.9 4.201-0.471 8.144 1.543 8.689 5.494 0.613 4.461-1.896 9.293-6.389 8.945-1.218-0.095-1.728-0.699-2.682-1.279z"></path>
</symbol>

<symbol id="icon-red_cartoon-5" viewBox="0 0 22 32">
<path fill="#fad34f" style="fill: var(--color1, #fad34f)" d="M22.467 25.045c5.228-3.687 6.561-10.795 2.977-15.876s-10.726-6.212-15.954-2.525-6.561 10.795-2.977 15.876c3.583 5.081 10.726 6.212 15.954 2.525z"></path>
<path fill="#fff" style="fill: var(--color2, #fff)" d="M14.995 10.698c0.242 0.343-0.139 0.375-0.492 0.624s-0.545 0.622-0.788 0.278c-0.243-0.344-0.152-0.824 0.201-1.073s0.836-0.173 1.079 0.171z"></path>
<path fill="#fff" style="fill: var(--color2, #fff)" d="M17.44 8.974c0.242 0.343-0.139 0.375-0.492 0.624s-0.545 0.622-0.788 0.278c-0.243-0.344-0.152-0.824 0.201-1.073s0.836-0.173 1.079 0.171z"></path>
<path fill="#fff" style="fill: var(--color2, #fff)" d="M17.959 10.999c0.473 0.671 0.297 1.61-0.393 2.097s-1.634 0.338-2.107-0.333c-0.473-0.671 0.593-0.348 1.283-0.835s0.744-1.599 1.217-0.928z"></path>
</symbol>
<symbol id="icon-Group-80" viewBox="0 0 26 32">
<path fill="#46ebb0" style="fill: var(--color3, #46ebb0)" d="M25.885 19.057c0 7.148-5.795 12.943-12.943 12.943s-12.943-5.795-12.943-12.943v-19.057h25.885v19.057z"></path>
<path fill="#fff" style="fill: var(--color2, #fff)" d="M12.54 22.779c0-0.927 0.752 0 1.679 0s1.679-0.927 1.679 0c0 0.927-0.752 1.679-1.679 1.679s-1.679-0.752-1.679-1.679z"></path>
<path fill="#fff" style="fill: var(--color2, #fff)" d="M7.253 22.779c0-0.927 0.752 0 1.679 0s1.679-0.927 1.679 0c0 0.927-0.752 1.679-1.679 1.679s-1.679-0.752-1.679-1.679z"></path>
<path fill="#fff" style="fill: var(--color2, #fff)" d="M8.936 19.222c0-1.705 1.382-3.086 3.086-3.086s3.086 1.382 3.086 3.086c0 1.704-1.382-0.119-3.086-0.119s-3.086 1.823-3.086 0.119z"></path>
</symbol>
<symbol id="icon-Cloud" viewBox="0 0 50 32">
<path fill="#c6c6c6" style="fill: var(--color4, #c6c6c6)" opacity="0.025" d="M26.393 2.132c-0.161-0.594-0.704-1.032-1.349-1.032-0.772 0-1.397 0.626-1.397 1.397 0 0.006 0 0.011 0 0.017-0.649 0.077-1.138 0.414-1.138 0.818 0 0.237 0.169 0.451 0.439 0.603-0.017 0.057-0.026 0.116-0.026 0.176 0 0.43 0.448 0.779 0.999 0.779 0.353 0 0.662-0.142 0.84-0.357 0.297 0.222 0.689 0.357 1.117 0.357 0.929 0 1.681-0.633 1.681-1.413 0-0.63-0.49-1.163-1.168-1.346z"></path>
<path fill="#c6c6c6" style="fill: var(--color4, #c6c6c6)" opacity="0.025" d="M4.372 4.929c-0.285-1.055-1.248-1.831-2.393-1.831-1.369 0-2.479 1.11-2.479 2.479 0 0.010 0.001 0.020 0.001 0.030-1.152 0.138-2.019 0.735-2.019 1.452 0 0.421 0.3 0.8 0.78 1.070-0.030 0.101-0.046 0.205-0.046 0.313 0 0.763 0.794 1.383 1.773 1.383 0.625 0 1.175-0.253 1.49-0.634 0.527 0.394 1.221 0.634 1.982 0.634 1.648 0 2.983-1.122 2.983-2.507-0-1.118-0.871-2.064-2.074-2.387z"></path>
<path fill="#c6c6c6" style="fill: var(--color4, #c6c6c6)" opacity="0.05" d="M30.111 6.943c-0.2-0.742-0.874-1.287-1.676-1.287-0.959 0-1.736 0.78-1.736 1.743 0 0.007 0.001 0.014 0.001 0.021-0.806 0.097-1.414 0.517-1.414 1.021 0 0.296 0.21 0.563 0.546 0.752-0.021 0.071-0.032 0.144-0.032 0.22 0 0.537 0.556 0.972 1.242 0.972 0.438 0 0.823-0.178 1.044-0.446 0.369 0.277 0.855 0.446 1.388 0.446 1.154 0 2.090-0.789 2.090-1.762-0-0.786-0.61-1.451-1.452-1.679z"></path>
<path fill="#c6c6c6" style="fill: var(--color4, #c6c6c6)" opacity="0.075" d="M2.784 12.541c-0.254-0.94-1.113-1.631-2.133-1.631-1.22 0-2.21 0.989-2.21 2.208 0 0.009 0.001 0.018 0.001 0.027-1.026 0.123-1.799 0.655-1.799 1.293 0 0.375 0.267 0.713 0.695 0.953-0.027 0.090-0.041 0.183-0.041 0.279 0 0.68 0.707 1.232 1.581 1.232 0.557 0 1.047-0.225 1.328-0.565 0.47 0.351 1.089 0.565 1.767 0.565 1.469 0 2.659-1 2.659-2.233 0-0.996-0.776-1.839-1.848-2.127z"></path>
<path fill="#c6c6c6" style="fill: var(--color4, #c6c6c6)" opacity="0.075" d="M18.656 20.788c-0.254-0.94-1.113-1.631-2.133-1.631-1.22 0-2.21 0.989-2.21 2.208 0 0.009 0.001 0.018 0.001 0.026-1.026 0.123-1.799 0.655-1.799 1.293 0 0.375 0.267 0.713 0.695 0.953-0.027 0.090-0.041 0.183-0.041 0.279 0 0.68 0.707 1.232 1.581 1.232 0.557 0 1.047-0.225 1.328-0.565 0.47 0.351 1.089 0.565 1.767 0.565 1.469 0 2.659-1 2.659-2.233 0-0.996-0.776-1.839-1.848-2.127z"></path>
<path fill="#c6c6c6" style="fill: var(--color4, #c6c6c6)" opacity="0.075" d="M34.419 1.631c-0.254-0.94-1.113-1.631-2.133-1.631-1.221 0-2.21 0.989-2.21 2.208 0 0.009 0.001 0.018 0.001 0.026-1.026 0.123-1.799 0.655-1.799 1.293 0 0.375 0.267 0.713 0.695 0.953-0.027 0.090-0.041 0.183-0.041 0.279 0 0.68 0.707 1.232 1.581 1.232 0.557 0 1.047-0.225 1.328-0.565 0.47 0.351 1.089 0.565 1.767 0.565 1.469 0 2.659-1 2.659-2.233 0-0.996-0.776-1.839-1.848-2.127z"></path>
<path fill="#c6c6c6" style="fill: var(--color4, #c6c6c6)" opacity="0.025" d="M13.228 26.235c-0.334-1.24-1.465-2.153-2.808-2.153-1.607 0-2.908 1.305-2.908 2.915 0 0.012 0.001 0.023 0.001 0.035-1.351 0.162-2.368 0.864-2.368 1.707 0 0.495 0.352 0.941 0.915 1.258-0.035 0.118-0.054 0.241-0.054 0.368 0 0.898 0.931 1.626 2.081 1.626 0.734 0 1.378-0.297 1.749-0.745 0.618 0.463 1.433 0.745 2.326 0.745 1.933 0 3.501-1.319 3.501-2.948 0-1.314-1.022-2.427-2.433-2.807z"></path>
<path fill="#c6c6c6" style="fill: var(--color4, #c6c6c6)" opacity="0.05" d="M7.382 22.443c-0.153-0.569-0.67-0.988-1.284-0.988-0.735 0-1.33 0.599-1.33 1.337 0 0.005 0 0.011 0 0.016-0.618 0.074-1.083 0.396-1.083 0.783 0 0.227 0.161 0.432 0.418 0.577-0.016 0.054-0.025 0.111-0.025 0.169 0 0.412 0.426 0.746 0.952 0.746 0.336 0 0.63-0.136 0.8-0.342 0.283 0.213 0.655 0.342 1.064 0.342 0.884 0 1.601-0.605 1.601-1.352 0-0.603-0.467-1.113-1.113-1.288z"></path>
<path fill="#c6c6c6" style="fill: var(--color4, #c6c6c6)" opacity="0.045" d="M31.435 24.811c-0.197-0.735-0.863-1.276-1.654-1.276-0.947 0-1.713 0.774-1.713 1.728 0 0.007 0.001 0.014 0.001 0.021-0.796 0.096-1.395 0.512-1.395 1.012 0 0.293 0.207 0.558 0.539 0.746-0.021 0.070-0.032 0.143-0.032 0.218 0 0.532 0.549 0.964 1.226 0.964 0.432 0 0.812-0.176 1.030-0.442 0.364 0.275 0.844 0.442 1.37 0.442 1.139 0 2.062-0.782 2.062-1.747 0-0.779-0.602-1.439-1.433-1.664z"></path>
<path fill="#c6c6c6" style="fill: var(--color4, #c6c6c6)" opacity="0.05" d="M48.482 15.576c-0.241-0.902-1.056-1.565-2.024-1.565-1.158 0-2.097 0.949-2.097 2.118 0 0.009 0.001 0.017 0.001 0.025-0.974 0.118-1.708 0.628-1.708 1.24 0 0.359 0.254 0.684 0.66 0.914-0.025 0.086-0.039 0.175-0.039 0.267 0 0.652 0.671 1.182 1.5 1.182 0.529 0 0.994-0.216 1.261-0.542 0.446 0.337 1.033 0.542 1.677 0.542 1.394 0 2.524-0.959 2.524-2.142 0-0.955-0.737-1.764-1.754-2.040z"></path>
</symbol>
<symbol id="icon-Ellipse-31" viewBox="0 0 32 32">
<path fill="#fad34f" style="fill: var(--color1, #fad34f)" opacity="0.1" d="M32 16c0 8.837-7.163 16-16 16s-16-7.163-16-16c0-8.837 7.163-16 16-16s16 7.163 16 16z"></path>
</symbol>
<symbol id="icon-red_cartoon-4" viewBox="0 0 32 32">
<path fill="#fad34f" style="fill: var(--color1, #fad34f)" d="M22.467 25.045c5.228-3.687 6.561-10.795 2.977-15.876s-10.726-6.212-15.954-2.525-6.561 10.795-2.977 15.876c3.583 5.081 10.726 6.212 15.954 2.525z"></path>
<path fill="#fff" style="fill: var(--color2, #fff)" d="M14.995 10.698c0.242 0.343-0.139 0.375-0.492 0.624s-0.545 0.622-0.788 0.278c-0.243-0.344-0.152-0.824 0.201-1.073s0.836-0.173 1.079 0.171z"></path>
<path fill="#fff" style="fill: var(--color2, #fff)" d="M17.44 8.974c0.242 0.343-0.139 0.375-0.492 0.624s-0.545 0.622-0.788 0.278c-0.243-0.344-0.152-0.824 0.201-1.073s0.836-0.173 1.079 0.171z"></path>
<path fill="#fff" style="fill: var(--color2, #fff)" d="M17.959 10.999c0.473 0.671 0.297 1.61-0.393 2.097s-1.634 0.338-2.107-0.333c-0.473-0.671 0.593-0.348 1.283-0.835s0.744-1.599 1.217-0.928z"></path>
</symbol>
<symbol id="icon-goodie1" viewBox="0 0 32 32">
<path fill="#fad34f" style="fill: var(--color1, #fad34f)" d="M16.052 31.983c8.837 0 16-7.163 16-16s-7.163-16-16-16c-8.837 0-16 7.163-16 16s7.163 16 16 16z"></path>
<path fill="#fff" style="fill: var(--color2, #fff)" d="M20.363 20.954c0 1.146-0.929 0-2.076 0-1.146 0-2.076 1.146-2.076 0s0.929-2.076 2.076-2.076c1.147 0 2.076 0.929 2.076 2.076z"></path>
<path fill="#fff" style="fill: var(--color2, #fff)" d="M26.898 20.954c0 1.146-0.929 0-2.076 0-1.146 0-2.076 1.146-2.076 0s0.929-2.076 2.076-2.076c1.147 0 2.076 0.929 2.076 2.076z"></path>
<path fill="#fff" style="fill: var(--color2, #fff)" d="M24.818 25.352c0 2.108-1.709 3.815-3.815 3.815s-3.815-1.709-3.815-3.815c0-2.107 1.709 0.147 3.815 0.147s3.815-2.254 3.815-0.147z"></path>
</symbol>
</defs>
</svg>

